<svg width="14" height="21" viewBox="0 0 14 21" fill="none" xmlns="http://www.w3.org/2000/svg">
<path d="M7.08082 3.3942C5.91965 2.367 5.78567 0.669907 7.39345 0C6.78449 1.40025 7.54506 1.99742 9.31385 2.99225C11.8114 4.97995 11.5628 6.44829 9.67113 9.3787C9.31385 12.103 12.2614 11.2991 11.8148 8.88743C11.9029 7.41026 12.4847 6.69907 13.378 6.69907C12.2672 8.23527 13.8184 10.1826 13.8692 10.5845C16.0129 27.5555 -9.08626 19.6506 3.59731 7.50296C3.00438 8.18842 2.97207 8.57481 2.97207 9.24472C2.97207 10.8972 5.28638 10.1826 4.66916 8.57481C3.59229 5.76966 4.35654 4.0641 5.96431 4.33207C4.91641 5.85642 5.0711 7.19034 6.85752 7.19034C8.64394 7.19034 9.09055 5.17203 7.08082 3.3942Z" fill="#E45157"/>
<path d="M1.67691 14.1573C1.78162 13.3201 1.76181 12.7973 3.06138 12.7728C5.01588 13.0288 5.73132 12.7131 6.3216 11.3437C6.72587 10.4058 7.84525 10.5398 8.19734 11.3437C8.63354 12.3397 9.31022 12.6498 10.877 12.9961C11.7541 13.0339 12.0617 13.3422 12.4401 14.1573C12.4401 22.1515 1.67691 21.3923 1.67691 14.1573Z" fill="#E19025"/>
<path d="M3.8653 16.3144C3.92873 15.8584 3.91673 15.5736 4.70402 15.5603C5.88807 15.6997 6.32149 15.5277 6.67909 14.7817C6.924 14.2708 7.60213 14.3438 7.81543 14.7817C8.07968 15.3243 8.48962 15.4932 9.43877 15.6819C9.97017 15.7024 10.1565 15.8704 10.3857 16.3144C10.3857 20.6693 3.8653 20.2557 3.8653 16.3144Z" fill="#ECB95F"/>
</svg>
